<?xml version="1.0" encoding="iso-8859-1"?>
<!-- Generator: Adobe Illustrator 18.0.0, SVG Export Plug-In . SVG Version: 6.00 Build 0)  -->
<!DOCTYPE svg PUBLIC "-//W3C//DTD SVG 1.1//EN" "http://www.w3.org/Graphics/SVG/1.1/DTD/svg11.dtd">
<svg version="1.1" xmlns="http://www.w3.org/2000/svg" xmlns:xlink="http://www.w3.org/1999/xlink" x="0px" y="0px"
	 viewBox="0 0 29 18" style="enable-background:new 0 0 29 18;" xml:space="preserve">
    <g fill-rule="evenodd">
        <path d="M9 1a8 8 0 1 0 0 16h11a8 8 0 1 0 0-16H9zm0-1h11a9 9 0 0 1 0 18H9A9 9 0 0 1 9 0z" fill-rule="nonzero"></path>
        <path d="M6.561 9.337c0-2.277 1.683-3.795 3.773-3.795 1.298 0 2.2.572 2.849 1.375l-.726.451c-.462-.594-1.243-1.012-2.123-1.012-1.606 0-2.827 1.232-2.827 2.981 0 1.738 1.221 2.992 2.827 2.992.88 0 1.606-.429 1.969-.792v-1.496H9.784v-.814h3.432v2.651a3.822 3.822 0 0 1-2.882 1.265c-2.09 0-3.773-1.529-3.773-3.806zM14.701 13V5.663h.913V13h-.913zm2.629 0V5.663h4.807v.814h-3.894v2.365h3.817v.814h-3.817V13h-.913z"></path>
    </g>
</svg>